<?xml version="1.0" encoding="UTF-8"?>
<svg version="1.1" xmlns="http://www.w3.org/2000/svg" width="212" height="184">
<path d="M0 0 C8.03765196 3.49712389 13.83174815 8.58695168 17.1171875 16.7890625 C18.10059481 20.36588025 18.41551428 23.6740856 18.625 27.375 C18.73714844 29.24285156 18.73714844 29.24285156 18.8515625 31.1484375 C18.90054688 32.08945312 18.94953125 33.03046875 19 34 C19.78761719 33.7834375 20.57523437 33.566875 21.38671875 33.34375 C37.00222532 29.35209388 51.24290218 30.31022832 65.8125 37.6875 C78.78687169 45.37958663 87.98589546 56.41110391 92 71 C94.84755858 85.42890419 92.49224678 98.55148633 84.4921875 110.9296875 C82.54775098 113.62746592 80.49441541 115.7956329 78 118 C77.36449219 118.62648438 76.72898438 119.25296875 76.07421875 119.8984375 C70.5626168 125.16529692 65.13564129 128.36530168 58 131 C57.17113281 131.3196875 56.34226563 131.639375 55.48828125 131.96875 C42.52737431 136.2559719 27.49732947 135.16616009 15 130 C11.71358526 128.28371955 8.55948152 126.46857628 5.42578125 124.48828125 C3.00074771 122.87437649 3.00074771 122.87437649 0 122 C-2.42992526 123.30599602 -2.42992526 123.30599602 -5 125.1875 C-18.38684027 134.08246946 -34.05075698 136.17824743 -49.75 133.31640625 C-64.05168029 129.17373203 -76.80505941 121.17118594 -84.75390625 108.3359375 C-91.18988891 96.27099195 -93.52350506 82.39587192 -90.12890625 68.953125 C-87.66007464 61.53853564 -84.2957765 55.71590073 -79 50 C-78.39285156 49.30261719 -77.78570312 48.60523438 -77.16015625 47.88671875 C-66.74991167 36.58234273 -51.71879902 31.63375102 -36.63671875 30.890625 C-28.43267118 31.13736327 -20.61726338 32.95309465 -13 36 C-13 23.79 -13 11.58 -13 -1 C-8.99511462 -3.00244269 -4.13024186 -1.15945988 0 0 Z M-53 66 C-58.21364299 72.69232903 -61.05721584 78.32776571 -60 87 C-57.85054381 94.9680478 -52.9956598 99.76368126 -46.203125 104.1640625 C-40.48464249 106.33384133 -32.22687051 106.10692036 -26.44921875 104.125 C-20.8661413 100.82935816 -16.41345253 95.95540075 -13.625 90.125 C-12.11786294 82.58931472 -12.62456996 77.12719354 -16.3828125 70.30078125 C-20.49937817 64.44412139 -25.99140385 61.29788818 -33 60 C-39.74829209 59.26648999 -47.7252355 61.72316392 -53 66 Z M20.30859375 66.81640625 C17.27118399 71.88480044 17.99416649 78.27149432 18 84 C17.92910156 85.05960938 17.85820313 86.11921875 17.78515625 87.2109375 C17.52261837 91.88539244 17.60253448 94.31685614 20 98.4375 C26.96468816 104.38650447 32.40215555 105.68539869 41.65625 105.37890625 C48.96426536 104.55077834 53.15347128 101.44093262 57.7734375 95.87890625 C61.6641338 89.91895427 61.71020395 83.91325113 61 77 C59.27013807 70.77456874 55.34327774 66.48616291 50 63 C40.29764824 57.93873383 28.46825171 59.25977151 20.30859375 66.81640625 Z " fill="#C2DB08" transform="translate(106,24)"/>
<path d="M0 0 C4.05825724 3.32039228 4.84109267 7.59981652 5.4140625 12.6484375 C5.48367187 13.87820312 5.55328125 15.10796875 5.625 16.375 C5.69976562 17.62023437 5.77453125 18.86546875 5.8515625 20.1484375 C5.90054688 21.08945312 5.94953125 22.03046875 6 23 C6.78761719 22.7834375 7.57523438 22.566875 8.38671875 22.34375 C24.00222532 18.35209388 38.24290218 19.31022832 52.8125 26.6875 C65.78687169 34.37958663 74.98589546 45.41110391 79 60 C81.84755858 74.42890419 79.49224678 87.55148633 71.4921875 99.9296875 C69.54775098 102.62746592 67.49441541 104.7956329 65 107 C64.36449219 107.62648438 63.72898437 108.25296875 63.07421875 108.8984375 C57.5626168 114.16529692 52.13564129 117.36530168 45 120 C43.75669922 120.47953125 43.75669922 120.47953125 42.48828125 120.96875 C29.51803727 125.25906041 14.50875419 124.15593811 2 119 C-3.22923957 116.32277244 -8.11703038 113.25531308 -13 110 C-13 109.34 -13 108.68 -13 108 C-12.26007813 107.41347656 -11.52015625 106.82695312 -10.7578125 106.22265625 C-7.81691574 103.85244342 -5.99242661 101.55551447 -3.875 98.4375 C-2.88113281 97.01244141 -2.88113281 97.01244141 -1.8671875 95.55859375 C2.96686109 87.24336892 3.43470527 77.9429543 3.328125 68.5625 C3.32625183 67.40234375 3.32437866 66.2421875 3.32244873 65.046875 C3.31576318 62.6029979 3.30191911 60.15913087 3.28125 57.71533203 C3.25031946 54.0379806 3.24028812 50.36106206 3.234375 46.68359375 C3.20040325 36.09727997 3.08453422 25.51424 2.609375 14.9375 C2.579505 14.1640625 2.54963501 13.390625 2.51885986 12.59375 C2.32277425 8.91859362 2.08845449 7.13268173 0 4 C0 2.68 0 1.36 0 0 Z M7.30859375 55.81640625 C4.27118399 60.88480044 4.99416649 67.27149432 5 73 C4.92910156 74.05960938 4.85820313 75.11921875 4.78515625 76.2109375 C4.52261837 80.88539244 4.60253448 83.31685614 7 87.4375 C13.96468816 93.38650447 19.40215555 94.68539869 28.65625 94.37890625 C35.96426536 93.55077834 40.15347128 90.44093262 44.7734375 84.87890625 C48.6641338 78.91895427 48.71020395 72.91325113 48 66 C46.27013807 59.77456874 42.34327774 55.48616291 37 52 C27.29764824 46.93873383 15.46825171 48.25977151 7.30859375 55.81640625 Z " fill="#C1DA08" transform="translate(119,35)"/>
<path d="M0 0 C4.05825724 3.32039228 4.84109267 7.59981652 5.4140625 12.6484375 C5.48367187 13.87820312 5.55328125 15.10796875 5.625 16.375 C5.69976562 17.62023437 5.77453125 18.86546875 5.8515625 20.1484375 C5.90054688 21.08945312 5.94953125 22.03046875 6 23 C6.78761719 22.7834375 7.57523438 22.566875 8.38671875 22.34375 C20.99259695 19.121419 31.54219725 19.22898944 44 23 C44 23.33 44 23.66 44 24 C37.39798179 24.1074591 30.99776762 23.71189038 24.4375 23 C21.323125 22.67 18.20875 22.34 15 22 C15 30.91 15 39.82 15 49 C16.98 48.505 16.98 48.505 19 48 C21.24907152 47.93209325 23.50001605 47.91500016 25.75 47.9375 C27.50570312 47.95103516 27.50570312 47.95103516 29.296875 47.96484375 C30.18890625 47.97644531 31.0809375 47.98804688 32 48 C32.33 48.66 32.66 49.32 33 50 C32.31035156 49.96519531 31.62070313 49.93039063 30.91015625 49.89453125 C22.96596383 49.6656862 14.28717067 50.38600464 8.0859375 56.0390625 C5.35047324 60.97864185 6.03895498 67.47952278 6 73 C5.90912109 74.60875 5.90912109 74.60875 5.81640625 76.25 C5.62934007 80.42214261 5.58089003 83.17924297 7.5 86.9375 C10.73844078 89.60921364 14.16363831 91.33323121 18 93 C15.50935112 93.68707555 13.62113708 94 11 94 C10.72027344 94.61746094 10.44054687 95.23492187 10.15234375 95.87109375 C7.44941726 101.58113459 4.44005173 106.24998318 0.2578125 110.9921875 C-1.25439426 112.93045496 -1.25439426 112.93045496 -0.6953125 115.2578125 C-0.46585938 115.83273438 -0.23640625 116.40765625 0 117 C-4.66861981 115.39516194 -9.09258167 113.02509806 -13 110 C-13 109.34 -13 108.68 -13 108 C-12.26007813 107.41347656 -11.52015625 106.82695312 -10.7578125 106.22265625 C-7.81691574 103.85244342 -5.99242661 101.55551447 -3.875 98.4375 C-2.88113281 97.01244141 -2.88113281 97.01244141 -1.8671875 95.55859375 C2.96686109 87.24336892 3.43470527 77.9429543 3.328125 68.5625 C3.32625183 67.40234375 3.32437866 66.2421875 3.32244873 65.046875 C3.31576318 62.6029979 3.30191911 60.15913087 3.28125 57.71533203 C3.25031946 54.0379806 3.24028812 50.36106206 3.234375 46.68359375 C3.20040325 36.09727997 3.08453422 25.51424 2.609375 14.9375 C2.579505 14.1640625 2.54963501 13.390625 2.51885986 12.59375 C2.32277425 8.91859362 2.08845449 7.13268173 0 4 C0 2.68 0 1.36 0 0 Z " fill="#88970C" transform="translate(119,35)"/>
<path d="M0 0 C0.33 0 0.66 0 1 0 C1 1.65 1 3.3 1 5 C1.78761719 4.7834375 2.57523437 4.566875 3.38671875 4.34375 C15.99259695 1.121419 26.54219725 1.22898944 39 5 C39 5.33 39 5.66 39 6 C32.39798179 6.1074591 25.99776762 5.71189038 19.4375 5 C14.7659375 4.505 14.7659375 4.505 10 4 C10 12.91 10 21.82 10 31 C11.32 30.67 12.64 30.34 14 30 C16.24907152 29.93209325 18.50001605 29.91500016 20.75 29.9375 C22.50570312 29.95103516 22.50570312 29.95103516 24.296875 29.96484375 C25.18890625 29.97644531 26.0809375 29.98804687 27 30 C27.33 30.66 27.66 31.32 28 32 C27.31035156 31.96519531 26.62070313 31.93039063 25.91015625 31.89453125 C17.9073061 31.66399647 9.40195713 32.43031955 3.0859375 37.99609375 C0.43305874 42.89151391 1.01374803 49.53515995 1 55 C0.67 55 0.34 55 0 55 C0 36.85 0 18.7 0 0 Z " fill="#7D8B0D" transform="translate(124,53)"/>
<path d="M0 0 C2.55245077 1.14947697 4.66056233 2.44037489 7 4 C3.86650268 5.04449911 3.01031744 4.93423645 0 4 C0 3.34 0 2.68 0 2 C-3.63 1.67 -7.26 1.34 -11 1 C-11 13.21 -11 25.42 -11 38 C-12.98 37.67 -14.96 37.34 -17 37 C-17.33 36.34 -17.66 35.68 -18 35 C-16.35 35.33 -14.7 35.66 -13 36 C-13 23.79 -13 11.58 -13 -1 C-9.06795707 -2.96602147 -4.09371255 -1.07403722 0 0 Z " fill="#91A021" transform="translate(106,24)"/>
<path d="M0 0 C3.13616391 2.56595229 3.94314893 5.14059406 5 9 C5.24050903 12.41696167 5.24050903 12.41696167 5.22705078 16.19873047 C5.22734283 16.89211014 5.22763489 17.58548981 5.22793579 18.29988098 C5.22655185 20.57244757 5.21103539 22.84467879 5.1953125 25.1171875 C5.19157903 26.7004478 5.18873364 28.28371043 5.18673706 29.86697388 C5.17912688 34.01967833 5.15950106 38.1722413 5.1373291 42.32489014 C5.11681414 46.56813646 5.10772329 50.8114058 5.09765625 55.0546875 C5.07625253 63.36985635 5.04214842 71.68491054 5 80 C4.67 80 4.34 80 4 80 C3.98969254 79.36567551 3.97938507 78.73135101 3.96876526 78.07780457 C3.85918188 71.37593342 3.74474089 64.67415682 3.62768555 57.97241211 C3.58481472 55.48317474 3.54311466 52.99391689 3.50268555 50.50463867 C3.21405254 32.7105364 3.21405254 32.7105364 2.58984375 14.92578125 C2.54676842 13.76685616 2.54676842 13.76685616 2.50282288 12.58451843 C2.31511479 8.90722914 2.09029128 7.13543692 0 4 C0 2.68 0 1.36 0 0 Z " fill="#A2B41D" transform="translate(119,35)"/>
<path d="M0 0 C0 0.66 0 1.32 0 2 C-0.99 2 -1.98 2 -3 2 C-3.21914063 2.54398437 -3.43828125 3.08796875 -3.6640625 3.6484375 C-5.44008692 6.77465593 -7.8340408 9.12416121 -10.375 11.625 C-10.85710938 12.11484375 -11.33921875 12.6046875 -11.8359375 13.109375 C-14.37243881 15.63209098 -16.66236091 17.65545345 -20 19 C-18.58419794 14.44625068 -16.04489128 11.62092411 -12.6875 8.375 C-12.21376953 7.89804688 -11.74003906 7.42109375 -11.25195312 6.9296875 C-4.2163954 0 -4.2163954 0 0 0 Z " fill="#9CAE1B" transform="translate(42,63)"/>
<path d="M0 0 C0 0.33 0 0.66 0 1 C-10.89 0.67 -21.78 0.34 -33 0 C-22.90391154 -5.04804423 -10.52273683 -3.15682105 0 0 Z " fill="#78851B" transform="translate(88,58)"/>
<path d="M0 0 C2.1462026 0.14029419 4.29196218 0.28738164 6.4375 0.4375 C7.63246094 0.51871094 8.82742187 0.59992188 10.05859375 0.68359375 C13 1 13 1 14 2 C15.4887186 2.08669432 16.981445 2.10703494 18.47265625 2.09765625 C19.82133789 2.09282227 19.82133789 2.09282227 21.19726562 2.08789062 C22.61555664 2.07532227 22.61555664 2.07532227 24.0625 2.0625 C25.01189453 2.05798828 25.96128906 2.05347656 26.93945312 2.04882812 C29.29303065 2.0370011 31.64648477 2.02052025 34 2 C34 2.33 34 2.66 34 3 C23.10514626 5.69115909 10.44703212 4.8658621 0 1 C0 0.67 0 0.34 0 0 Z " fill="#8A9823" transform="translate(124,154)"/>
<path d="M0 0 C3.14521114 2.57335457 3.96681892 5.1166642 5 9 C5.2234478 11.79894146 5.19095067 14.56956014 5.125 17.375 C5.11597656 18.11105469 5.10695313 18.84710938 5.09765625 19.60546875 C5.07430144 21.4037888 5.03843836 23.20193911 5 25 C4.34 25.33 3.68 25.66 3 26 C2.98018066 25.44014404 2.96036133 24.88028809 2.93994141 24.3034668 C2.84462217 21.76434146 2.73497247 19.22603112 2.625 16.6875 C2.5940625 15.80642578 2.563125 14.92535156 2.53125 14.01757812 C2.49257812 13.17001953 2.45390625 12.32246094 2.4140625 11.44921875 C2.3826416 10.66893311 2.3512207 9.88864746 2.31884766 9.0847168 C2.10412111 6.69844232 2.10412111 6.69844232 0 4 C0 2.68 0 1.36 0 0 Z " fill="#94A41F" transform="translate(119,35)"/>
<path d="M0 0 C0.66 0 1.32 0 2 0 C4.9428429 5.05801124 6.82672285 8.9767335 6 15 C4.47265625 16.69921875 4.47265625 16.69921875 3 18 C2.95101562 17.20335938 2.90203125 16.40671875 2.8515625 15.5859375 C2.29970605 7.61842686 2.29970605 7.61842686 0 0 Z " fill="#7D8B1A" transform="translate(164,95)"/>
<path d="M0 0 C0.91922932 2.75768797 0.96572948 4.66256337 0.8125 7.625 C0.70301698 12.90009108 2.83461626 17.28255685 5 22 C3.68 21.67 2.36 21.34 1 21 C-1.43818586 14.4473755 -1.43249199 7.93998781 -1 1 C-0.67 0.67 -0.34 0.34 0 0 Z " fill="#7C891E" transform="translate(46,99)"/>
<path d="M0 0 C0.33 0.66 0.66 1.32 1 2 C-0.65 4.31 -2.3 6.62 -4 9 C-5.32 8.67 -6.64 8.34 -8 8 C-6.50260417 6.79557292 -5.00520833 5.59114583 -3.5078125 4.38671875 C-1.74707893 2.87729455 -1.74707893 2.87729455 0 0 Z " fill="#899821" transform="translate(164,118)"/>
<path d="M0 0 C-4.36200187 2.44697666 -8.02693484 3.50269348 -13 4 C-11.72807637 1.45615274 -10.80051531 1.30631844 -8.1875 0.3125 C-7.50042969 0.04050781 -6.81335937 -0.23148438 -6.10546875 -0.51171875 C-3.70623504 -1.06812731 -2.3105636 -0.77364938 0 0 Z " fill="#77831F" transform="translate(55,59)"/>
<path d="M0 0 C3.77545388 1.09068668 6.47043472 1.9083091 9 5 C6.69 4.67 4.38 4.34 2 4 C2 3.34 2 2.68 2 2 C1.01 1.67 0.02 1.34 -1 1 C-0.67 0.67 -0.34 0.34 0 0 Z " fill="#808E1E" transform="translate(104,24)"/>
</svg>
