<svg xmlns="http://www.w3.org/2000/svg" width="141" height="71" fill="none"><path fill="#FBFF3A" fill-rule="evenodd" d="M122.2 70.5H141c0-.786-.013-1.57-.038-2.35h-14.667l14.513-2.887a69.95 69.95 0 0 0-.535-4.925l-13.759 2.737 13.302-5.51a70.48 70.48 0 0 0-1.149-5.12l-13.018 5.392 12.223-8.167a69.879 69.879 0 0 0-1.857-5.26l-12.369 8.265 11.146-11.145a70.472 70.472 0 0 0-2.671-5.306l-11.61 11.61 9.802-14.67a70.82 70.82 0 0 0-3.589-5.204l-10.428 15.607 7.811-18.857a70.973 70.973 0 0 0-4.591-4.883l-7.968 19.237A51.476 51.476 0 0 1 122.2 70.5Zm-103.4 0c0-1.424.058-2.835.17-4.23H.126C.042 67.67 0 69.08 0 70.5h18.8Zm1.41-12.043-18.452-3.67a69.962 69.962 0 0 1 2.304-7.928l18.714 3.722a51.297 51.297 0 0 0-2.566 7.876Zm6.153-14.893-17.529-7.26a70.544 70.544 0 0 1 4.341-6.851l18.017 7.463a51.863 51.863 0 0 0-4.83 6.648Zm10.165-12.036L20.488 20.81a70.917 70.917 0 0 1 5.952-5.35l16.704 11.162a51.874 51.874 0 0 0-6.616 4.906Zm12.805-8.21L35.375 9.359A70.23 70.23 0 0 1 42.451 5.8l14.731 14.732a51.314 51.314 0 0 0-7.849 2.786Zm13.912-4.013L51.987 2.455A70.102 70.102 0 0 1 59.66.829l12.017 17.985a52.435 52.435 0 0 0-8.433.492Zm13.514-.13L68.823.02a71.853 71.853 0 0 1 7.729.236L85.1 20.89a51.43 51.43 0 0 0-8.341-1.715Zm11.974 2.932L84.617 1.414a69.986 69.986 0 0 1 7.328 1.907l4.461 22.428a51.464 51.464 0 0 0-7.673-3.642Zm9.81 4.952V5.8a70.154 70.154 0 0 1 6.58 3.274v23.032a51.933 51.933 0 0 0-6.58-5.046Zm7.52 5.915 4.127-20.748a70.861 70.861 0 0 1 5.622 4.262l-4.444 22.342a51.958 51.958 0 0 0-5.305-5.856Z" clip-rule="evenodd"/><path fill="#FBFF3A" fill-rule="evenodd" d="M103.4 70.498h18.8c0-.9-.023-1.794-.068-2.683l-9.352-.163 9.226-1.668a51.852 51.852 0 0 0-1-6.586l-10.593 1.916 10.097-3.978a51.199 51.199 0 0 0-2.021-6.108l-11.555 4.552 10.585-6.808a51.547 51.547 0 0 0-2.923-5.478l-12.021 7.732 10.47-10.11a51.964 51.964 0 0 0-3.685-4.718L97.573 47.78l9.553-13.772a51.985 51.985 0 0 0-4.288-3.851l-10.65 15.353 7.648-17.59a51.723 51.723 0 0 0-4.72-2.898L87.574 42.37c9.489 5.772 15.826 16.21 15.826 28.128Zm-65.8 0H18.8c0-.874.022-1.742.064-2.605l18.814.328a33.398 33.398 0 0 0-.078 2.277Zm53.699-47.346a51.305 51.305 0 0 0-4.962-1.883l-4.02 18.515a32.756 32.756 0 0 1 4.86 2.348l4.121-18.98Zm-9.578-3.133a51.494 51.494 0 0 0-4.999-.85l-.33 18.955c1.713.31 3.38.752 4.99 1.316l.34-19.42ZM70.5 18.798c-1.318 0-2.624.05-3.917.146l3.374 18.658a33.204 33.204 0 0 1 4.907.282l-3.45-19.078a52.39 52.39 0 0 0-.914-.008Zm-9.81 20.288L50.28 22.902a51.478 51.478 0 0 0-3.922 1.867L56.59 40.675a32.679 32.679 0 0 1 4.1-1.59Zm-6.9 3.065L40.5 28.388a51.935 51.935 0 0 0-3.24 2.51l13.11 13.575a32.975 32.975 0 0 1 3.42-2.322ZM31.984 36.01a51.951 51.951 0 0 0-2.463 2.963L45 49.709a33.077 33.077 0 0 1 2.621-2.853L31.985 36.009Zm-6.725 9.447a51.576 51.576 0 0 0-1.64 3.216l17.254 7.503a32.859 32.859 0 0 1 1.756-3.166l-17.37-7.553Zm-4.48 10.823a51.32 51.32 0 0 0-.817 3.269l18.376 3.99c.238-1.107.532-2.194.879-3.256L20.78 56.279Zm47.078-18.576a32.86 32.86 0 0 0-4.609.697L56.304 20.77a51.341 51.341 0 0 1 4.466-1.059l7.086 17.99Z" clip-rule="evenodd"/><path fill="#FBFF3A" fill-rule="evenodd" d="m100.775 70.498 2.624-.091a32.54 32.54 0 0 0-.041-1.566l-15.948.556-.28-.045 15.908-3.746a32.489 32.489 0 0 0-.315-1.776l-15.106 3.557 14.345-6.538c-.201-.654-.421-1.3-.661-1.937l-13.435 6.123 12.272-8.835c-.333-.69-.69-1.367-1.07-2.029l-11.551 8.316 10.017-10.742a33.01 33.01 0 0 0-1.532-2.033l-9.497 10.184 7.613-12.301a33.091 33.091 0 0 0-2.033-1.926l-7.277 11.76L89.866 43.9a32.952 32.952 0 0 0-2.548-1.684L82.44 55.26l2.346-14.404a32.693 32.693 0 0 0-3.044-1.285l-2.278 13.984-.519-14.861a32.717 32.717 0 0 0-3.474-.721l.506 14.497-3.487-14.811a33.44 33.44 0 0 0-3.785-.011l3.413 14.494-6.466-14.188a32.727 32.727 0 0 0-3.927.828l6.329 13.888-9.297-12.914a32.735 32.735 0 0 0-3.846 1.763l9.07 12.6-11.768-10.974a33.046 33.046 0 0 0-3.519 2.717L60.11 56.504 46.447 48.05a33.051 33.051 0 0 0-2.931 3.62l13.137 8.13-14.782-5.526a32.758 32.758 0 0 0-2.085 4.405l14.038 5.249-14.976-2.44a32.734 32.734 0 0 0-1.006 4.996l13.974 2.275-14.194.496c-.015.413-.023.827-.023 1.243h18.8c0-7.787 6.313-14.1 14.1-14.1s14.1 6.313 14.1 14.1h16.176Z" clip-rule="evenodd"/></svg>